<svg width="53" height="53" viewBox="0 0 53 53" fill="none" xmlns="http://www.w3.org/2000/svg">
<circle cx="26.5" cy="26.5" r="26" fill="#E5EDEF" stroke="#276B5F"/>
<path d="M23.5227 40V10.9091H33.3523C35.6345 10.9091 37.5 11.321 38.9489 12.1449C40.4072 12.9593 41.4867 14.0625 42.1875 15.4545C42.8883 16.8466 43.2386 18.3996 43.2386 20.1136C43.2386 21.8277 42.8883 23.3854 42.1875 24.7869C41.4962 26.1884 40.4261 27.3059 38.9773 28.1392C37.5284 28.9631 35.6723 29.375 33.4091 29.375H26.3636V26.25H33.2955C34.858 26.25 36.1127 25.9801 37.0597 25.4403C38.0066 24.9006 38.6932 24.1714 39.1193 23.2528C39.5549 22.3248 39.7727 21.2784 39.7727 20.1136C39.7727 18.9489 39.5549 17.9072 39.1193 16.9886C38.6932 16.0701 38.0019 15.3504 37.0455 14.8295C36.089 14.2992 34.8201 14.0341 33.2386 14.0341H27.0455V40H23.5227Z" fill="#276B5F"/>
<path d="M18.1761 40.4091C16.5398 40.4091 15.0952 39.9957 13.8423 39.169C12.5895 38.3338 11.6094 37.1577 10.902 35.6406C10.1946 34.1151 9.84091 32.3125 9.84091 30.233C9.84091 28.1705 10.1946 26.3807 10.902 24.8636C11.6094 23.3466 12.5938 22.1747 13.8551 21.348C15.1165 20.5213 16.5739 20.108 18.2273 20.108C19.5057 20.108 20.5156 20.321 21.2571 20.7472C22.0071 21.1648 22.5781 21.642 22.9702 22.179C23.3707 22.7074 23.6818 23.142 23.9034 23.483H24.1591V13.8182H27.1761V40H24.2614V36.983H23.9034C23.6818 37.3409 23.3665 37.7926 22.9574 38.3381C22.5483 38.875 21.9645 39.3565 21.206 39.7827C20.4474 40.2003 19.4375 40.4091 18.1761 40.4091ZM18.5852 37.6989C19.7955 37.6989 20.8182 37.3835 21.6534 36.7528C22.4886 36.1136 23.1236 35.2315 23.5582 34.1065C23.9929 32.973 24.2102 31.6648 24.2102 30.1818C24.2102 28.7159 23.9972 27.4332 23.571 26.3338C23.1449 25.2259 22.5142 24.3651 21.679 23.7514C20.8438 23.1293 19.8125 22.8182 18.5852 22.8182C17.3068 22.8182 16.2415 23.1463 15.3892 23.8026C14.5455 24.4503 13.9105 25.3324 13.4844 26.4489C13.0668 27.5568 12.858 28.8011 12.858 30.1818C12.858 31.5795 13.071 32.8494 13.4972 33.9915C13.9318 35.125 14.571 36.0284 15.4148 36.7017C16.267 37.3665 17.3239 37.6989 18.5852 37.6989Z" fill="#276B5F"/>
</svg>
